<?xml version="1.0" standalone="no"?>
<!DOCTYPE svg PUBLIC "-//W3C//DTD SVG 20010904//EN"
 "http://www.w3.org/TR/2001/REC-SVG-20010904/DTD/svg10.dtd">
<svg version="1.0" xmlns="http://www.w3.org/2000/svg"
 width="72.000000pt" height="72.000000pt" viewBox="0 0 72.000000 72.000000"
 preserveAspectRatio="xMidYMid meet">
<metadata>
Created by potrace 1.14, written by Peter Selinger 2001-2017
</metadata>
<g transform="translate(0.000000,72.000000) scale(0.100000,-0.100000)"
fill="#000000" stroke="none">
<path d="M279 677 c-103 -29 -171 -88 -218 -187 -34 -73 -36 -191 -4 -262 30
-66 104 -141 166 -169 69 -31 189 -33 262 -5 66 26 147 103 176 169 32 72 33
202 2 267 -69 145 -239 228 -384 187z m80 -161 c50 -45 -3 -96 -99 -96 -109 0
-166 58 -98 100 44 28 165 25 197 -4z m198 -91 c18 -55 32 -107 33 -116 0 -19
-23 -28 -230 -93 -114 -36 -147 -43 -156 -33 -12 13 -56 138 -50 144 2 2 15
-1 30 -7 34 -13 117 -13 150 0 52 19 66 44 66 119 0 68 0 68 33 79 17 6 45 10
62 9 28 -2 31 -6 62 -102z m-302 -19 c39 0 72 6 93 17 27 15 32 15 32 2 0 -55
-175 -74 -229 -24 -31 30 -25 42 12 23 19 -11 56 -18 92 -18z m5 -46 c35 0 74
6 90 15 27 14 30 14 30 0 0 -20 -74 -54 -115 -55 -42 0 -101 18 -120 36 -25
26 -17 34 20 18 19 -7 62 -14 95 -14z"/>
<path d="M455 493 c-32 -8 -38 -19 -31 -57 6 -31 11 -36 35 -36 15 0 35 6 45
13 17 12 17 18 7 50 -12 37 -17 39 -56 30z"/>
<path d="M325 282 c-103 -35 -130 -53 -88 -60 29 -4 218 63 218 78 0 22 -15
20 -130 -18z"/>
</g>
</svg>
